<?xml version="1.0" encoding="utf-8"?>
<!-- Generator: Adobe Illustrator 27.0.0, SVG Export Plug-In . SVG Version: 6.00 Build 0)  -->
<svg version="1.1" id="Camada_1" xmlns="http://www.w3.org/2000/svg" xmlns:xlink="http://www.w3.org/1999/xlink" x="0px" y="0px"
	 viewBox="0 0 720 721.3" style="enable-background:new 0 0 720 721.3;" xml:space="preserve">
<style type="text/css">
	.st0{fill:url(#SVGID_1_);}
	.st1{fill:url(#SVGID_00000074428834687835972590000008180718427958581639_);}
	.st2{fill:url(#SVGID_00000104671386064126650960000017989190936429267899_);}
	.st3{fill:url(#SVGID_00000080190853274428636240000016105255341623334801_);}
	.st4{fill:url(#SVGID_00000045579096324317126630000008295625149959228822_);}
	.st5{fill:url(#SVGID_00000166648765979918143810000001851733142714640280_);}
	
		.st6{clip-path:url(#SVGID_00000101794239500379354780000016812533227397937044_);fill:url(#SVGID_00000125601469379515157320000013012891339468834716_);}
	
		.st7{clip-path:url(#SVGID_00000070097391677534624160000010948087335253788833_);fill:url(#SVGID_00000026137675034240058900000012385537539336248743_);}
	.st8{fill:url(#SVGID_00000076569343029332480030000011966776125132889231_);}
	.st9{fill:url(#SVGID_00000005252224428934142530000006734379544125751996_);}
	.st10{fill:url(#SVGID_00000024693911827904228090000016563614543600660366_);}
	.st11{fill:url(#SVGID_00000171707798279627798600000009972767833974927791_);}
	.st12{fill:url(#SVGID_00000022551103057103328890000005575602697346425535_);}
	.st13{fill:url(#SVGID_00000182499755103722025060000008393959103330813842_);}
	.st14{fill:url(#SVGID_00000040557181164208437850000002860181916312267177_);}
	.st15{fill:url(#SVGID_00000054224554109589856460000005664705994055384967_);}
	.st16{fill:url(#SVGID_00000060739380607415295680000000809656977665321888_);}
	.st17{fill:url(#SVGID_00000144331726956468182740000000144839621474455176_);}
	.st18{fill:url(#SVGID_00000034797562013573813300000006224927030882953382_);}
	.st19{fill:url(#SVGID_00000128474233902484348230000016437089206081982381_);}
	.st20{fill:url(#SVGID_00000121263638834265475190000002302436908843408801_);}
	.st21{fill:url(#SVGID_00000142175384557130498650000008741614908221268622_);}
	.st22{fill:url(#SVGID_00000163048462469377642660000013207018002913344683_);}
	.st23{fill:url(#SVGID_00000181082461320919512920000015653926607738927288_);}
	.st24{fill:url(#SVGID_00000012468837226703989940000007100986939195757499_);}
</style>
<g>
	<linearGradient id="SVGID_1_" gradientUnits="userSpaceOnUse" x1="3.2143" y1="360.8676" x2="663.794" y2="360.8676">
		<stop  offset="0" style="stop-color:#0A589D"/>
		<stop  offset="1" style="stop-color:#2C84C6"/>
	</linearGradient>
	<path class="st0" d="M558.4,458.2c-36.2,75-113.1,126.8-202,126.8c-123.8,0-224.2-100.4-224.2-224.2
		c0-123.8,100.4-224.2,224.2-224.2c43.6,0,84.3,12.5,118.8,34l66-114.7c-23.4-14.2-48.7-25.8-75.3-34.4c0,0,0,0,0,0l-0.3-0.1
		c-4.1-1.3-8.3-2.6-12.5-3.8l-0.7-0.1c0.4,0.1,0.7,0.1,0.7,0.1c-2.8-0.8-5.6-1.5-8.4-2.2c-0.3,0.1-0.5,0.1-0.8,0.1
		c-2,0.3-4.1-0.1-6.1-0.4c-0.6-0.1-1.3-0.1-1.9-0.1c-1.2,0-2.2-0.6-2.8-1.6c-0.2-0.1-0.5-0.1-0.7-0.2c-3.1-0.7-6.3-1.3-9.5-1.7
		c-6.7-0.9-13.4-1.6-20.2-1.8c-6.9-0.2-13.6-1.2-20.5-1.8c-7-0.6-14.1-0.8-21.1-0.4c-1.7,0.1-2.7-0.8-3.1-2
		c-0.3,0.1-0.6,0.2-0.9,0.2c-1,0.1-1.9,0.2-2.9,0.3c-0.3,0-0.7,0-1-0.1c-0.3-0.1-0.5-0.2-0.8-0.3c-0.5-0.3-0.9-0.7-1.2-1.2
		C158.3,8.9,3.2,166.7,3.2,360.8c0,123.2,62.5,231.8,157.6,295.8l2.5,2.8l0.4,0.6l14.1,9.3c0.1,0.1,0.2,0.2,0.4,0.3
		c0.1,0.1,0.3,0.2,0.5,0.3l0.1,0l0,0c52.3,30.1,113,47.4,177.7,47.4c36.8,0,72.3-5.6,105.7-15.9c-0.3-0.5,0-1.4,0.8-1.4
		c0.6,0,0.9,0.4,0.9,0.9c84.7-26.7,155.8-84.2,200-159.4L558.4,458.2z"/>
	
		<linearGradient id="SVGID_00000132789271999234415850000018285907915350759598_" gradientUnits="userSpaceOnUse" x1="462.9389" y1="523.7607" x2="720" y2="523.7607">
		<stop  offset="0" style="stop-color:#88CFC2"/>
		<stop  offset="1" style="stop-color:#3788BA"/>
	</linearGradient>
	<path style="fill:url(#SVGID_00000132789271999234415850000018285907915350759598_);" d="M720,346.5
		c-43.7,129.3-124.2,150.1-124.2,150.1l-4.2-39.1c-4.6,7.6-7.8,19.8-7.8,39.1c0,72.5-113.9,196.8-120.7,204.2l0.5,0l-0.7,0.3
		C722.9,627.7,720,346.5,720,346.5z"/>
	
		<linearGradient id="SVGID_00000009582165843385002940000005424284148093086086_" gradientUnits="userSpaceOnUse" x1="219.2327" y1="579.09" x2="515.3896" y2="579.09">
		<stop  offset="0" style="stop-color:#009FD2"/>
		<stop  offset="1" style="stop-color:#37BEC1"/>
	</linearGradient>
	<path style="fill:url(#SVGID_00000009582165843385002940000005424284148093086086_);" d="M533.5,536.9
		c-2.9-18.4-9.7-31.7-18.8-41.2l8.8,1.8l-45-39.8L345.3,465l-67.9,0.6l-50.6-2.2l-3.5,1.5c0.2,0.3,0.4,0.5,0.6,0.8
		c0,0,0.1,0.1,0.1,0.1c0,0,0.1,0,0.1,0c0,0,0,0,0.1,0c1.5,0,2.6,0.6,3.3,1.6c4.5,0.6,4.8,7,1,8.4c5.2,4.2,11.8,9,20,13.7
		c6.2,3.2,16.7,7.8,30.3,10.4c29,4.9,66.1,2.6,97.3-1.2l19.3-3.2l0,0c17.9-3.2,54.4-8.8,76.5-5.1l0,0c0,0,2.3,0.3,6.2,1.4
		c0.2,0,0.3,0.1,0.5,0.1c4.3,1.3,10.3,3.8,17.2,8.3c2.1,1.3,4.1,2.7,5.9,4.2c0.2,0.1,0.3,0.2,0.5,0.4c0,0,0,0,0,0
		c19.1,15.8,21.2,38.7,20.9,50.3l0,0c0,0,0.5,14.8-3.4,30.3l0,0l0,0.1c-0.3,1.1-0.6,2.2-0.9,3.4l-1.2,4.4c-0.3,0.9-0.5,1.9-0.8,2.8
		l-0.2,0.7l0,0c-16.3,55.2-62.1,87.1-97.6,103.9C555.4,649.2,533.5,536.9,533.5,536.9z"/>
	
		<linearGradient id="SVGID_00000101786267961036010880000017816819240135560324_" gradientUnits="userSpaceOnUse" x1="587.6453" y1="421.5302" x2="719.9985" y2="421.5302">
		<stop  offset="0" style="stop-color:#88CFC2"/>
		<stop  offset="1" style="stop-color:#3788BA"/>
	</linearGradient>
	<path style="fill:url(#SVGID_00000101786267961036010880000017816819240135560324_);" d="M587.6,420.4l8.2,76.2
		c0,0,93.7,4.3,124.2-150.1C720,346.5,682.2,414.7,587.6,420.4"/>
	
		<linearGradient id="SVGID_00000067221644115177617630000012076654218610932132_" gradientUnits="userSpaceOnUse" x1="381.0411" y1="390.3152" x2="521.2755" y2="679.9796">
		<stop  offset="0" style="stop-color:#0A589D"/>
		<stop  offset="1" style="stop-color:#2C84C6"/>
	</linearGradient>
	<path style="fill:url(#SVGID_00000067221644115177617630000012076654218610932132_);" d="M575.1,399.3
		C575.1,399.3,575.1,399.3,575.1,399.3c-5.3-7.8-11.1-12.7-11.1-12.7l0,0c-47.2-45-165.4-21.5-211.4-10.1c0,0,0,0,0,0
		c-28.9,6.2-43.2,7.6-48.5,8c-95.7,3.9-114.2-55.2-114.2-55.2s0,0,0,0c0,0,0,0,0,0l0,0.2l0,0.1c0,0,0,0,0,0c0,0,0,0,0,0
		c0,0,0,0.1,0,0.1c0,0,0,0,0,0c0,0,0,0,0,0c0,0,0,0,0,0.1c0,0,0,0.1,0,0.1c0,0,0,0,0,0c0,0,0,0,0,0c0,0,0,0.1,0,0.1c0,0,0,0,0,0
		c0,0,0,0,0,0c0,0.1,0,0.2,0,0.2c0,0,0,0,0,0c0,0,0,0.1,0,0.1c0,0.1,0,0.1,0,0.2c0,0.2-0.1,0.3-0.1,0.4c0,0.1,0.1,0.2,0.1,0.3
		c0,0.1,0,0.2,0,0.3c0,0.1,0,0.3-0.1,0.4c0,0.1-0.1,0.3-0.1,0.4c0,0.1-0.1,0.2-0.1,0.3c0,0.1,0,0.1,0,0.2c0,0.9,0,1.8,0,2.7
		c0,0.2-0.1,0.5-0.3,0.6c-0.1,0.5-0.2,1-0.3,1.4c-0.1,0.6-0.2,1.3-0.2,1.9c0,0.7-0.1,1.3-0.1,2c0,0.7,0,1.4-0.1,2.1
		c-0.1,0.3-0.3,0.5-0.6,0.5c-2.9,33.6,0.7,110.4,97.3,101.7l18.1-3.3l25.7-5l26.6,1.5l183.3,9.7l26.7,60.7v59.6l-25.6,53.9
		l-16.9,20.2c-27.1,23.8-65.1,47.5-122,64.4c-15.9,6.1-26.9,8.8-26.9,8.8c129.1-6.3,181.9-68.8,202.3-107.3l0,0c0,0,0,0,0,0
		c0.1-0.1,0.2-0.3,0.2-0.4c17.5-32.9,24.5-77.2,24.5-77.2l0,0C613.6,460.2,587.1,415.4,575.1,399.3z"/>
	
		<linearGradient id="SVGID_00000135669754536242280860000008317654041455607955_" gradientUnits="userSpaceOnUse" x1="2.1314" y1="596.8936" x2="374.5065" y2="21.7174">
		<stop  offset="0" style="stop-color:#2C84C6"/>
		<stop  offset="1" style="stop-color:#345DA9"/>
	</linearGradient>
	<path style="fill:url(#SVGID_00000135669754536242280860000008317654041455607955_);" d="M0,360.8c0,132,71.7,247.2,178.3,308.8
		c-221.2-165.7-141-391.1-141-391.1C129.8-26,453.1,17.6,453.1,17.6C422.4,9,390,4.4,356.4,4.4C159.6,4.4,0,163.9,0,360.8"/>
	<g>
		<defs>
			<path id="SVGID_00000064337402494429122160000009375217061801252494_" d="M374.9,432.1c0,0-11.1,23.1-22.3,32.5
				c0,0,25.9-11.3,52.1-36.8L374.9,432.1z"/>
		</defs>
		<clipPath id="SVGID_00000147908357715619421460000009037686102381420446_">
			<use xlink:href="#SVGID_00000064337402494429122160000009375217061801252494_"  style="overflow:visible;"/>
		</clipPath>
		
			<linearGradient id="SVGID_00000044886172915309520210000006303561208966771851_" gradientUnits="userSpaceOnUse" x1="-136.5126" y1="854.7147" x2="-133.7349" y2="854.7147" gradientTransform="matrix(29.6498 14.0447 14.0447 -29.6498 -7592.5229 27698.7422)">
			<stop  offset="0" style="stop-color:#2C84C6"/>
			<stop  offset="1" style="stop-color:#09AAC7"/>
		</linearGradient>
		
			<polygon style="clip-path:url(#SVGID_00000147908357715619421460000009037686102381420446_);fill:url(#SVGID_00000044886172915309520210000006303561208966771851_);" points="
			362.2,407.7 418.9,434.6 395.2,484.8 338.4,457.9 		"/>
	</g>
	<g>
		<defs>
			<path id="SVGID_00000064341962054611723040000001439769805352339887_" d="M431.1,424.2c-0.5,1.6-0.9,2.9-1.4,3.7
				c0,0,13.8-4.9,32.5-8.1L431.1,424.2z"/>
		</defs>
		<clipPath id="SVGID_00000162310024762654885480000003333149939222022562_">
			<use xlink:href="#SVGID_00000064341962054611723040000001439769805352339887_"  style="overflow:visible;"/>
		</clipPath>
		
			<linearGradient id="SVGID_00000027592222182345720170000015610464162792388795_" gradientUnits="userSpaceOnUse" x1="-136.5126" y1="855.6731" x2="-133.7349" y2="855.6731" gradientTransform="matrix(29.6498 14.0447 14.0447 -29.6498 -7584.9517 27682.7578)">
			<stop  offset="0" style="stop-color:#2C84C6"/>
			<stop  offset="1" style="stop-color:#09AAC7"/>
		</linearGradient>
		
			<polygon style="clip-path:url(#SVGID_00000162310024762654885480000003333149939222022562_);fill:url(#SVGID_00000027592222182345720170000015610464162792388795_);" points="
			435.7,407.1 465.4,421.2 456.3,440.4 426.6,426.3 		"/>
	</g>
	<g>
		
			<linearGradient id="SVGID_00000150798501765086308300000012607856279485536435_" gradientUnits="userSpaceOnUse" x1="510.9028" y1="322.4647" x2="707.2164" y2="274.3123">
			<stop  offset="0" style="stop-color:#03675F"/>
			<stop  offset="1" style="stop-color:#8DD3DD"/>
		</linearGradient>
		<path style="fill:url(#SVGID_00000150798501765086308300000012607856279485536435_);" d="M571.2,303.3c4.8,8.5,10.3,16.4,16.4,24
			c1.1,1.3,1.6,1.3,2.9,0c7.5-7.8,16-14.2,25.7-19.1c1.8-0.9,1.9-1.8,1.2-3.5c-2.1-4.6-4-9.3-6-13.9c-2-4.7-4.1-9.4-6-14.2
			c-0.7-1.8-1.5-2.2-3.4-1.4c-11.6,5-23.1,10-34.8,14.9c-1.8,0.8-1.8,1.6-1.2,3.2C567.6,296.8,569.3,300.1,571.2,303.3z"/>
		
			<linearGradient id="SVGID_00000155131770508187119680000001958724452943357830_" gradientUnits="userSpaceOnUse" x1="498.9849" y1="273.8761" x2="695.2985" y2="225.7237">
			<stop  offset="0" style="stop-color:#03675F"/>
			<stop  offset="1" style="stop-color:#8DD3DD"/>
		</linearGradient>
		<path style="fill:url(#SVGID_00000155131770508187119680000001958724452943357830_);" d="M583.4,232.9c-9.9,3.4-20,5.3-30.5,5.2
			c-2.4,0-2.8,0.9-2.5,3c1.6,13.2,4.8,26,9.7,38.4c0.7,1.7,1.3,1.9,2.8,1.2c5.8-2.6,11.7-5,17.5-7.5c0,0,0,0,0,0
			c5.8-2.5,11.5-5,17.3-7.4c1.9-0.8,2.3-1.7,1.4-3.6c-4-9.2-8-18.3-11.8-27.6C586.5,232.6,585.7,232.1,583.4,232.9z"/>
		
			<linearGradient id="SVGID_00000056386348242971078150000007591200634024344223_" gradientUnits="userSpaceOnUse" x1="487.137" y1="225.5733" x2="683.4506" y2="177.421">
			<stop  offset="0" style="stop-color:#03675F"/>
			<stop  offset="1" style="stop-color:#8DD3DD"/>
		</linearGradient>
		<path style="fill:url(#SVGID_00000056386348242971078150000007591200634024344223_);" d="M537,226.4c1.6,0.4,2.1-0.2,2.2-1.8
			c0.1-3.4,0.5-6.7,0.7-10.1c0.4-5.2,1.9-10.2,3.2-16c-7.5,7.1-13.4,14.5-18,22.9c-0.7,1.3-0.1,1.6,0.9,2
			C529.5,224.7,533.2,225.5,537,226.4z"/>
		
			<linearGradient id="SVGID_00000000186766708138023200000002779681700060940215_" gradientUnits="userSpaceOnUse" x1="496.381" y1="263.2603" x2="692.6946" y2="215.1079">
			<stop  offset="0" style="stop-color:#03675F"/>
			<stop  offset="1" style="stop-color:#8DD3DD"/>
		</linearGradient>
		<path style="fill:url(#SVGID_00000000186766708138023200000002779681700060940215_);" d="M612.2,259.7c5.7-2.6,11.5-5,17.2-7.4
			c5.8-2.5,11.5-5,17.3-7.4c1.6-0.7,2.2-1.3,1.4-3.1c-5.7-12.2-12.8-23.4-21.3-33.7c-1.2-1.5-2.2-1.6-3.5-0.2
			c-7.3,7.9-16,14-25.5,18.9c-1.6,0.8-1.8,1.7-1.1,3.3c4.1,9.3,8.1,18.7,12,28.1C609.4,260.1,610.3,260.5,612.2,259.7z"/>
		
			<linearGradient id="SVGID_00000134971117783295761780000016690658036630279064_" gradientUnits="userSpaceOnUse" x1="520.0334" y1="359.6894" x2="716.347" y2="311.537">
			<stop  offset="0" style="stop-color:#03675F"/>
			<stop  offset="1" style="stop-color:#8DD3DD"/>
		</linearGradient>
		<path style="fill:url(#SVGID_00000134971117783295761780000016690658036630279064_);" d="M676.7,308.5c-1.8-0.4-1.8,0.7-1.8,1.9
			c-0.1,2.4-0.2,4.8-0.4,7.3c-0.4,6-1.8,11.9-3.2,17.8c0.3,0,0.5,0.1,0.5,0c7.2-6.2,12.6-13.9,17.4-22c0.7-1.1,0-1.4-0.9-1.8
			C684.6,310.2,680.7,309.3,676.7,308.5z"/>
		
			<linearGradient id="SVGID_00000003091176475986963910000002680841615686603966_" gradientUnits="userSpaceOnUse" x1="508.9208" y1="314.3844" x2="705.2344" y2="266.232">
			<stop  offset="0" style="stop-color:#03675F"/>
			<stop  offset="1" style="stop-color:#8DD3DD"/>
		</linearGradient>
		<path style="fill:url(#SVGID_00000003091176475986963910000002680841615686603966_);" d="M695.2,300.6c2.2-6.6,4.1-13.2,5.1-20.1
			c2-14.5,0.7-28.7-3.8-42.6c-0.7-2.2-1.7-2.7-3.8-1.7c-4.5,2.1-9.1,4-13.6,5.9c0,0,0,0,0,0c-4.5,1.9-8.9,3.9-13.4,5.7
			c-2.1,0.8-2.6,1.7-1.7,3.9c5.4,13.9,9.1,28.2,10.5,43.1c0.2,2,0.9,2.7,2.8,3c5.2,0.8,10.3,2.1,15.2,3.9
			C694,302.6,694.6,302.2,695.2,300.6z"/>
		
			<linearGradient id="SVGID_00000109029298447864276670000008852425770725695143_" gradientUnits="userSpaceOnUse" x1="520.3436" y1="360.9539" x2="716.6572" y2="312.8015">
			<stop  offset="0" style="stop-color:#03675F"/>
			<stop  offset="1" style="stop-color:#8DD3DD"/>
		</linearGradient>
		<path style="fill:url(#SVGID_00000109029298447864276670000008852425770725695143_);" d="M647.8,349.4c0.7,1.7,1.6,1.9,2.8,0.6
			c1.9-1.9,3.8-3.9,5.2-6.2c6.7-10.7,8.6-22.5,8.7-34.9c0-1.5-0.5-1.7-1.8-1.7c-9.7,0.1-19.1,1.4-28.3,4.6c-1.9,0.7-2.1,1.5-1.3,3.3
			c2.5,5.5,4.8,11.1,7.2,16.7c0,0,0,0,0,0C642.8,337.7,645.3,343.5,647.8,349.4z"/>
		
			<linearGradient id="SVGID_00000013902860379858545660000004788269021990745472_" gradientUnits="userSpaceOnUse" x1="498.3447" y1="271.2662" x2="694.6583" y2="223.1138">
			<stop  offset="0" style="stop-color:#03675F"/>
			<stop  offset="1" style="stop-color:#8DD3DD"/>
		</linearGradient>
		<path style="fill:url(#SVGID_00000013902860379858545660000004788269021990745472_);" d="M518.6,234.8
			c-3.4,10.3-5.7,20.9-5.7,31.8c0,10.3,1.5,20.4,4.7,30.3c0.7,2.1,1.6,2.8,3.8,1.7c4.5-2.1,9.1-4,13.6-5.9c4.7-2,9.4-4.1,14.2-6.1
			c1.5-0.6,1.9-1.4,1.3-3c-5.5-14.2-9.4-28.7-10.7-43.9c-0.2-1.8-1-2.6-2.7-2.8c-5.1-0.7-10.1-2-14.9-3.9
			C520,232.1,519.3,232.9,518.6,234.8z"/>
		
			<linearGradient id="SVGID_00000109709669402957649140000009265749998782228124_" gradientUnits="userSpaceOnUse" x1="492.7679" y1="248.53" x2="689.0815" y2="200.3776">
			<stop  offset="0" style="stop-color:#03675F"/>
			<stop  offset="1" style="stop-color:#8DD3DD"/>
		</linearGradient>
		<path style="fill:url(#SVGID_00000109709669402957649140000009265749998782228124_);" d="M674.8,232.8c4.7-2,9.4-4.1,14.2-6
			c1.8-0.7,2.1-1.7,1.2-3.4c-1.8-3.4-3.8-6.6-6-9.8c-10.4-14.9-24-25.6-40.5-32.9c-1.3-0.6-2.1-0.7-2.8,1c-2.1,5.1-4.7,9.9-8,14.4
			c-0.9,1.3-0.7,2.3,0.3,3.5c10.1,11.4,18,24.2,24.5,38c0.8,1.6,1.5,2,3.2,1.3C665.5,236.7,670.1,234.8,674.8,232.8
			C674.8,232.8,674.8,232.8,674.8,232.8z"/>
		
			<linearGradient id="SVGID_00000157999118765974377620000017488140934652320670_" gradientUnits="userSpaceOnUse" x1="523.1493" y1="372.3926" x2="719.4629" y2="324.2402">
			<stop  offset="0" style="stop-color:#03675F"/>
			<stop  offset="1" style="stop-color:#8DD3DD"/>
		</linearGradient>
		<path style="fill:url(#SVGID_00000157999118765974377620000017488140934652320670_);" d="M612.1,361.2c-0.3-0.4-0.4-0.7-0.7-0.8
			c-7.5-3.9-14.2-8.8-20.5-14.5c-1.3-1.1-1.7-0.2-2.3,0.6c-2,3-3.7,6.2-5.3,9.5c-0.8,1.6-0.7,2.3,1.3,2.8c8,2,16.1,2.7,24.3,2.7
			C609.9,361.6,610.9,361.4,612.1,361.2z"/>
		
			<linearGradient id="SVGID_00000008142763585498842550000006183230647741251465_" gradientUnits="userSpaceOnUse" x1="520.8972" y1="363.2108" x2="717.2108" y2="315.0585">
			<stop  offset="0" style="stop-color:#03675F"/>
			<stop  offset="1" style="stop-color:#8DD3DD"/>
		</linearGradient>
		<path style="fill:url(#SVGID_00000008142763585498842550000006183230647741251465_);" d="M635.6,355.9c3.3-0.2,3.5-0.4,2.2-3.6
			c-2.3-5.4-4.6-10.8-7-16.2c0,0,0,0,0,0c-2.4-5.6-4.9-11.1-7.1-16.8c-0.8-2-1.7-2.3-3.5-1.3c-8.4,4.4-15.8,10.2-22.5,17
			c-1.4,1.4-0.9,2.3,0.3,3.4c4.6,4.1,9.4,8,14.8,11C619.9,353.3,627.2,356.3,635.6,355.9z"/>
		
			<linearGradient id="SVGID_00000035500587709631405460000018268350251888921023_" gradientUnits="userSpaceOnUse" x1="514.4993" y1="337.1274" x2="710.8129" y2="288.975">
			<stop  offset="0" style="stop-color:#03675F"/>
			<stop  offset="1" style="stop-color:#8DD3DD"/>
		</linearGradient>
		<path style="fill:url(#SVGID_00000035500587709631405460000018268350251888921023_);" d="M528.7,319.6
			c10.3,15.5,24.1,26.8,41.1,34.4c1.7,0.8,2.8,1.2,3.7-1.3c1.7-4.7,4.4-9.1,7.2-13.2c1.2-1.7,1.3-2.6-0.1-4.3
			c-9.8-11.4-17.8-24-24.1-37.6c-0.9-1.9-1.9-2.2-3.7-1.4c-4.6,2.1-9.3,4-13.9,6c0,0,0,0,0,0c-4.6,2-9.3,4.1-13.9,5.9
			c-1.8,0.7-2.1,1.5-1.1,3.1C525.5,314.1,527,316.9,528.7,319.6z"/>
		
			<linearGradient id="SVGID_00000056392744751930195160000004666413624635877535_" gradientUnits="userSpaceOnUse" x1="508.2923" y1="311.8217" x2="704.6058" y2="263.6693">
			<stop  offset="0" style="stop-color:#03675F"/>
			<stop  offset="1" style="stop-color:#8DD3DD"/>
		</linearGradient>
		<path style="fill:url(#SVGID_00000056392744751930195160000004666413624635877535_);" d="M630.3,302.2c10.1-3.5,20.6-5.4,31.3-5.4
			c2.2,0,2.3-0.7,2.1-2.5c-1.6-13.4-4.8-26.4-9.8-38.9c-0.7-1.8-1.4-1.8-2.9-1.1c-5.8,2.6-11.7,5-17.5,7.5
			c-5.8,2.5-11.7,5.1-17.5,7.5c-1.7,0.7-2,1.5-1.3,3.2c4.1,9.4,8.1,18.9,12.1,28.3C627.6,302.5,628.5,302.8,630.3,302.2z"/>
		
			<linearGradient id="SVGID_00000050651472710006880930000014511840116877784709_" gradientUnits="userSpaceOnUse" x1="484.1373" y1="213.3437" x2="680.4509" y2="165.1913">
			<stop  offset="0" style="stop-color:#03675F"/>
			<stop  offset="1" style="stop-color:#8DD3DD"/>
		</linearGradient>
		<path style="fill:url(#SVGID_00000050651472710006880930000014511840116877784709_);" d="M622.8,188.8c1.1,1,1.9,1,2.6-0.2
			c2.1-3.4,4.2-6.9,5.7-10.6c0.5-1.1,0.1-1.5-0.9-1.7c-9.2-2.2-18.5-3.3-28-2.3C609.7,178,616.5,183,622.8,188.8z"/>
		
			<linearGradient id="SVGID_00000168837563397914789560000001648214406917995137_" gradientUnits="userSpaceOnUse" x1="486.9427" y1="224.7809" x2="683.2562" y2="176.6285">
			<stop  offset="0" style="stop-color:#03675F"/>
			<stop  offset="1" style="stop-color:#8DD3DD"/>
		</linearGradient>
		<path style="fill:url(#SVGID_00000168837563397914789560000001648214406917995137_);" d="M566.5,186c-0.8-1.9-1.7-2.3-3.2-0.8
			c-1.5,1.5-3,3-4.3,4.8c-7.5,10.8-9.2,23.1-9.5,35.8c0,1.4,0.4,2,1.9,2c9.7-0.1,19.1-1.5,28.3-4.7c2-0.7,2-1.7,1.2-3.3
			c-2.5-5.5-4.8-11.2-7.2-16.7C571.3,197.3,568.8,191.7,566.5,186z"/>
		
			<linearGradient id="SVGID_00000152261772596169580540000010183163463511629191_" gradientUnits="userSpaceOnUse" x1="486.3703" y1="222.4474" x2="682.6838" y2="174.295">
			<stop  offset="0" style="stop-color:#03675F"/>
			<stop  offset="1" style="stop-color:#8DD3DD"/>
		</linearGradient>
		<path style="fill:url(#SVGID_00000152261772596169580540000010183163463511629191_);" d="M578.4,179.1c-3.4,0.2-3.5,0.4-2.1,3.6
			c2.3,5.3,4.6,10.7,6.9,16c0,0,0,0,0,0c2.4,5.7,4.9,11.3,7.3,17c0.8,2,1.7,2.3,3.6,1.3c8.5-4.4,15.8-10.2,22.5-17
			c1.2-1.3,1.1-2.1-0.1-3.2c-4.7-4.3-9.7-8.3-15.2-11.4C594,181.6,586.7,178.6,578.4,179.1z"/>
	</g>
	
		<linearGradient id="SVGID_00000036237057127143600930000002441447630014997639_" gradientUnits="userSpaceOnUse" x1="185.6467" y1="519.0349" x2="576.7922" y2="519.0349">
		<stop  offset="0" style="stop-color:#2C84C6"/>
		<stop  offset="1" style="stop-color:#09AAC7"/>
	</linearGradient>
	<path style="fill:url(#SVGID_00000036237057127143600930000002441447630014997639_);" d="M553.4,444.7c-0.2-0.4-0.4-0.6-0.4-0.6
		c-1.6-2.4-3.4-4.6-5.2-6.6c-0.4-0.4-0.6-0.7-0.8-0.9c0-0.1-0.1-0.1-0.1-0.2c0,0-0.1-0.1-0.1-0.1l0,0
		c-21.4-21.9-57.9-21.1-84.5-16.6c-1.2,0.2-2.3,0.4-3.5,0.6L349,434.5l-47.7,4.4c-123.3,11.1-111.3-109.6-111.3-109.6
		c-6.6,35.7-5,63.9,0.6,86.1c0.7,2.3,3.5,11.7,7.9,21.1c5.6,10.7,16.3,28.5,30.9,39.9c21.2,12.7,74.3,32.7,174.6,4.5
		c0,0,113.9-36.2,128.5,56.4c0,0,21.1,107.5-106.2,160.2l-0.8,0.4l-0.2,0.1l-14.4,6.1l0,0c-4.1,1.8-8.1,3.3-11.7,4.7
		C532.3,669.1,570.9,603,576,546.8v0c0,0,0,0,0,0c0.2-2.1,0.3-4.1,0.4-6.2C579.3,490.2,563,458.6,553.4,444.7z"/>
</g>
</svg>
